<?xml version="1.0" encoding="utf-8"?>
<!-- Generator: Adobe Illustrator 24.0.3, SVG Export Plug-In . SVG Version: 6.00 Build 0)  -->
<svg version="1.1" id="레이어_1" xmlns="http://www.w3.org/2000/svg" xmlns:xlink="http://www.w3.org/1999/xlink" x="0px"
	 y="0px" viewBox="0 0 100 100" style="enable-background:new 0 0 100 100;" xml:space="preserve">
<style type="text/css">
	.st0{fill:#363636;}
</style>
<g>
	<path class="st0" d="M71.1,0H28.9C12.9,0,0,12.9,0,28.9v42.3C0,87.1,12.9,100,28.9,100h42.3c15.9,0,28.9-12.9,28.9-28.9V28.9
		C100,12.9,87.1,0,71.1,0 M90.8,71.9c0,10.6-8.6,19.2-19.2,19.2H28.4C17.8,91,9.2,82.5,9.2,71.9V28.6C9.2,18,17.8,9.5,28.4,9.5h43.3
		c10.6,0,19.2,8.6,19.2,19.2V71.9z"/>
	<path class="st0" d="M50,24.3c-14.3,0-25.9,11.6-25.9,25.9S35.7,76.2,50,76.2s25.9-11.6,25.9-25.9S64.3,24.3,50,24.3 M50,67.1
		c-9.3,0-16.8-7.5-16.8-16.8c0-9.3,7.5-16.8,16.8-16.8S66.8,41,66.8,50.2C66.8,59.5,59.3,67.1,50,67.1"/>
	<path class="st0" d="M76.8,17.3c-3.3,0-6,2.7-6,6c0,3.3,2.7,6,6,6c3.3,0,6-2.7,6-6C82.9,20,80.1,17.3,76.8,17.3"/>
</g>
</svg>
