<?xml version="1.0" encoding="utf-8"?>
<!-- Generator: Adobe Illustrator 24.0.3, SVG Export Plug-In . SVG Version: 6.00 Build 0)  -->
<svg version="1.1" id="레이어_1" xmlns="http://www.w3.org/2000/svg" xmlns:xlink="http://www.w3.org/1999/xlink" x="0px"
	 y="0px" viewBox="0 0 100 100" style="enable-background:new 0 0 100 100;" xml:space="preserve">
<style type="text/css">
	.st0{fill:#363636;}
</style>
<g>
	<g>
		<path class="st0" d="M2.1,0.1C3.7-0.1,5.3,0.1,6.8,0c29.9,0,59.8,0,89.8,0c0.9,0,1.9,0.1,2.5,0.8c1.2,1.2,0.8,3,0.9,4.5
			c0,30.6,0,61.1,0,91.7c0.1,1.7-1.7,3.1-3.4,2.9c-31.2,0-62.4,0-93.7,0c-1.6,0.1-3-1.3-2.9-2.9C0,65.7,0,34.3,0,2.9
			C-0.1,1.6,0.9,0.4,2.1,0.1z M22.6,25c0,16.7,0,33.4,0,50c6.2,0,12.5,0,18.7,0c0.1-8.3-0.1-16.5,0.1-24.8c2.1,2.9,3.9,5.9,6,8.7
			C51,64.3,54.9,69.4,58.3,75c6.3,0.2,12.6,0,18.9,0.1c0.1-0.8,0.1-1.6,0.1-2.3c-0.1-15.9,0.1-31.8-0.1-47.8c-6.2,0-12.4,0-18.7,0
			c0,8.3,0,16.6-0.1,24.9c-5.8-8.2-11.2-16.7-17.2-24.8C35.1,24.8,28.8,25,22.6,25z"/>
	</g>
</g>
</svg>
